<svg width="76" height="75" viewBox="0 0 76 75" fill="none" xmlns="http://www.w3.org/2000/svg">
<g filter="url(#filter0_d_12_63)">
<path d="M38 0L45.858 25.2209H71.287L50.7145 40.8082L58.5725 66.0291L38 50.4418L17.4275 66.0291L25.2855 40.8082L4.71302 25.2209H30.142L38 0Z" fill="#D9D9D9"/>
<path d="M38 1.68088L45.3806 25.3696L45.4901 25.7209H45.858H69.7991L50.4125 40.4097L50.1327 40.6218L50.2371 40.957L57.6311 64.6885L38.302 50.0432L38 49.8144L37.698 50.0432L18.3689 64.6885L25.7629 40.957L25.8673 40.6218L25.5875 40.4097L6.20087 25.7209H30.142H30.5099L30.6194 25.3696L38 1.68088Z" stroke="black"/>
</g>
<defs>
<filter id="filter0_d_12_63" x="0.713135" y="0" width="74.5737" height="74.0291" filterUnits="userSpaceOnUse" color-interpolation-filters="sRGB">
<feFlood flood-opacity="0" result="BackgroundImageFix"/>
<feColorMatrix in="SourceAlpha" type="matrix" values="0 0 0 0 0 0 0 0 0 0 0 0 0 0 0 0 0 0 127 0" result="hardAlpha"/>
<feOffset dy="4"/>
<feGaussianBlur stdDeviation="2"/>
<feComposite in2="hardAlpha" operator="out"/>
<feColorMatrix type="matrix" values="0 0 0 0 0 0 0 0 0 0 0 0 0 0 0 0 0 0 0.25 0"/>
<feBlend mode="normal" in2="BackgroundImageFix" result="effect1_dropShadow_12_63"/>
<feBlend mode="normal" in="SourceGraphic" in2="effect1_dropShadow_12_63" result="shape"/>
</filter>
</defs>
</svg>
